<svg xmlns="http://www.w3.org/2000/svg" xmlns:xlink="http://www.w3.org/1999/xlink" width="500" zoomAndPan="magnify" viewBox="0 0 375 374.999991" height="500" preserveAspectRatio="xMidYMid meet" version="1.0"><defs><clipPath id="8c7f21f48a"><path d="M 6.886719 0 L 368.386719 0 L 368.386719 361.5 L 6.886719 361.5 Z M 6.886719 0 " clip-rule="nonzero"/></clipPath></defs><g clip-path="url(#8c7f21f48a)"><path fill="#dbf227" d="M 368.105469 180.609375 C 368.105469 183.566406 368.03125 186.519531 367.886719 189.472656 C 367.742188 192.421875 367.527344 195.371094 367.234375 198.3125 C 366.945312 201.253906 366.585938 204.1875 366.152344 207.109375 C 365.71875 210.035156 365.210938 212.945312 364.636719 215.84375 C 364.058594 218.742188 363.410156 221.625 362.691406 224.492188 C 361.976562 227.359375 361.1875 230.207031 360.328125 233.039062 C 359.46875 235.867188 358.542969 238.671875 357.546875 241.453125 C 356.550781 244.238281 355.488281 246.996094 354.359375 249.726562 C 353.226562 252.457031 352.027344 255.15625 350.765625 257.828125 C 349.5 260.5 348.171875 263.140625 346.78125 265.746094 C 345.386719 268.355469 343.929688 270.925781 342.410156 273.460938 C 340.890625 275.996094 339.308594 278.492188 337.667969 280.949219 C 336.023438 283.40625 334.324219 285.824219 332.5625 288.199219 C 330.800781 290.574219 328.984375 292.902344 327.109375 295.1875 C 325.234375 297.472656 323.304688 299.710938 321.320312 301.898438 C 319.332031 304.089844 317.296875 306.230469 315.207031 308.320312 C 313.117188 310.410156 310.976562 312.445312 308.785156 314.433594 C 306.597656 316.417969 304.359375 318.347656 302.074219 320.222656 C 299.789062 322.097656 297.460938 323.914062 295.085938 325.675781 C 292.710938 327.4375 290.296875 329.136719 287.835938 330.78125 C 285.378906 332.421875 282.882812 334.003906 280.347656 335.523438 C 277.8125 337.042969 275.242188 338.5 272.636719 339.890625 C 270.027344 341.285156 267.386719 342.613281 264.714844 343.878906 C 262.042969 345.140625 259.34375 346.339844 256.613281 347.46875 C 253.882812 348.601562 251.125 349.664062 248.339844 350.660156 C 245.558594 351.65625 242.753906 352.582031 239.925781 353.441406 C 237.097656 354.300781 234.246094 355.085938 231.378906 355.804688 C 228.511719 356.523438 225.628906 357.171875 222.730469 357.75 C 219.832031 358.324219 216.921875 358.832031 213.996094 359.265625 C 211.074219 359.699219 208.140625 360.058594 205.199219 360.347656 C 202.257812 360.640625 199.308594 360.855469 196.359375 361 C 193.40625 361.144531 190.453125 361.21875 187.496094 361.21875 C 184.539062 361.21875 181.585938 361.144531 178.632812 361 C 175.683594 360.855469 172.734375 360.640625 169.792969 360.347656 C 166.851562 360.058594 163.917969 359.699219 160.996094 359.265625 C 158.070312 358.832031 155.160156 358.324219 152.261719 357.75 C 149.363281 357.171875 146.480469 356.523438 143.613281 355.804688 C 140.746094 355.085938 137.898438 354.300781 135.066406 353.441406 C 132.238281 352.582031 129.433594 351.65625 126.652344 350.660156 C 123.867188 349.664062 121.109375 348.601562 118.378906 347.46875 C 115.648438 346.339844 112.949219 345.140625 110.277344 343.878906 C 107.605469 342.613281 104.964844 341.285156 102.359375 339.890625 C 99.75 338.5 97.179688 337.042969 94.644531 335.523438 C 92.109375 334.003906 89.613281 332.421875 87.15625 330.78125 C 84.699219 329.136719 82.28125 327.4375 79.90625 325.675781 C 77.535156 323.914062 75.203125 322.097656 72.917969 320.222656 C 70.632812 318.347656 68.394531 316.417969 66.207031 314.433594 C 64.015625 312.445312 61.875 310.410156 59.785156 308.320312 C 57.695312 306.230469 55.660156 304.089844 53.671875 301.898438 C 51.6875 299.710938 49.757812 297.472656 47.882812 295.1875 C 46.007812 292.902344 44.191406 290.574219 42.429688 288.199219 C 40.667969 285.824219 38.96875 283.40625 37.324219 280.949219 C 35.683594 278.492188 34.101562 275.996094 32.582031 273.460938 C 31.0625 270.925781 29.605469 268.355469 28.214844 265.746094 C 26.820312 263.140625 25.492188 260.5 24.226562 257.828125 C 22.964844 255.15625 21.765625 252.457031 20.636719 249.726562 C 19.503906 246.996094 18.441406 244.238281 17.445312 241.453125 C 16.449219 238.671875 15.523438 235.867188 14.664062 233.039062 C 13.804688 230.207031 13.019531 227.359375 12.300781 224.492188 C 11.582031 221.625 10.933594 218.742188 10.355469 215.84375 C 9.78125 212.945312 9.273438 210.035156 8.839844 207.109375 C 8.40625 204.1875 8.046875 201.253906 7.757812 198.3125 C 7.46875 195.371094 7.25 192.421875 7.105469 189.472656 C 6.960938 186.519531 6.886719 183.566406 6.886719 180.609375 C 6.886719 177.652344 6.960938 174.699219 7.105469 171.746094 C 7.25 168.796875 7.46875 165.847656 7.757812 162.90625 C 8.046875 159.964844 8.40625 157.03125 8.839844 154.109375 C 9.273438 151.183594 9.78125 148.273438 10.355469 145.375 C 10.933594 142.476562 11.582031 139.59375 12.300781 136.726562 C 13.019531 133.859375 13.804688 131.007812 14.664062 128.179688 C 15.523438 125.351562 16.449219 122.546875 17.445312 119.765625 C 18.441406 116.980469 19.503906 114.222656 20.636719 111.492188 C 21.765625 108.761719 22.964844 106.0625 24.226562 103.390625 C 25.492188 100.71875 26.820312 98.078125 28.214844 95.46875 C 29.605469 92.863281 31.0625 90.292969 32.582031 87.757812 C 34.101562 85.222656 35.683594 82.726562 37.324219 80.269531 C 38.96875 77.808594 40.667969 75.394531 42.429688 73.019531 C 44.191406 70.644531 46.007812 68.316406 47.882812 66.03125 C 49.757812 63.746094 51.6875 61.507812 53.671875 59.320312 C 55.660156 57.128906 57.695312 54.988281 59.785156 52.898438 C 61.875 50.808594 64.015625 48.773438 66.207031 46.785156 C 68.394531 44.800781 70.632812 42.871094 72.917969 40.996094 C 75.203125 39.121094 77.535156 37.304688 79.90625 35.542969 C 82.28125 33.78125 84.699219 32.082031 87.15625 30.4375 C 89.613281 28.796875 92.109375 27.214844 94.644531 25.695312 C 97.179688 24.175781 99.75 22.71875 102.359375 21.324219 C 104.964844 19.933594 107.605469 18.605469 110.277344 17.339844 C 112.949219 16.078125 115.648438 14.878906 118.378906 13.75 C 121.109375 12.617188 123.867188 11.554688 126.652344 10.558594 C 129.433594 9.5625 132.238281 8.636719 135.066406 7.777344 C 137.898438 6.917969 140.746094 6.128906 143.613281 5.414062 C 146.480469 4.695312 149.363281 4.046875 152.261719 3.46875 C 155.160156 2.894531 158.070312 2.386719 160.996094 1.953125 C 163.917969 1.519531 166.851562 1.160156 169.792969 0.871094 C 172.734375 0.578125 175.683594 0.363281 178.632812 0.21875 C 181.585938 0.0742188 184.539062 0 187.496094 0 C 190.453125 0 193.40625 0.0742188 196.359375 0.21875 C 199.308594 0.363281 202.257812 0.578125 205.199219 0.871094 C 208.140625 1.160156 211.074219 1.519531 213.996094 1.953125 C 216.921875 2.386719 219.832031 2.894531 222.730469 3.46875 C 225.628906 4.046875 228.511719 4.695312 231.378906 5.414062 C 234.246094 6.128906 237.097656 6.917969 239.925781 7.777344 C 242.753906 8.636719 245.558594 9.5625 248.339844 10.558594 C 251.125 11.554688 253.882812 12.617188 256.613281 13.75 C 259.34375 14.878906 262.042969 16.078125 264.714844 17.339844 C 267.386719 18.605469 270.027344 19.933594 272.636719 21.324219 C 275.242188 22.71875 277.8125 24.175781 280.347656 25.695312 C 282.882812 27.214844 285.378906 28.796875 287.835938 30.4375 C 290.296875 32.082031 292.710938 33.78125 295.085938 35.542969 C 297.460938 37.304688 299.789062 39.121094 302.074219 40.996094 C 304.359375 42.871094 306.597656 44.800781 308.785156 46.785156 C 310.976562 48.773438 313.117188 50.808594 315.207031 52.898438 C 317.296875 54.988281 319.332031 57.128906 321.320312 59.320312 C 323.304688 61.507812 325.234375 63.746094 327.109375 66.03125 C 328.984375 68.316406 330.800781 70.644531 332.5625 73.019531 C 334.324219 75.394531 336.023438 77.808594 337.667969 80.269531 C 339.308594 82.726562 340.890625 85.222656 342.410156 87.757812 C 343.929688 90.292969 345.386719 92.863281 346.78125 95.46875 C 348.171875 98.078125 349.5 100.71875 350.765625 103.390625 C 352.027344 106.0625 353.226562 108.761719 354.359375 111.492188 C 355.488281 114.222656 356.550781 116.980469 357.546875 119.765625 C 358.542969 122.546875 359.46875 125.351562 360.328125 128.179688 C 361.1875 131.007812 361.976562 133.859375 362.691406 136.726562 C 363.410156 139.59375 364.058594 142.476562 364.636719 145.375 C 365.210938 148.273438 365.71875 151.183594 366.152344 154.109375 C 366.585938 157.03125 366.945312 159.964844 367.234375 162.90625 C 367.527344 165.847656 367.742188 168.796875 367.886719 171.746094 C 368.03125 174.699219 368.105469 177.652344 368.105469 180.609375 Z M 368.105469 180.609375 " fill-opacity="1" fill-rule="nonzero"/></g><path fill="#ffffff" d="M 106.066406 202.152344 C 107.964844 200.933594 109.859375 199.578125 111.621094 198.222656 C 133.027344 183.046875 153.351562 168.6875 183.566406 186.164062 C 185.328125 186.164062 187.496094 186.164062 189.800781 186.027344 C 204.566406 185.488281 226.789062 184.675781 236.949219 194.972656 C 239.253906 197.273438 240.746094 199.984375 241.558594 203.238281 C 231.125 211.90625 204.433594 215.296875 191.5625 216.515625 C 190.613281 216.648438 189.800781 217.597656 189.933594 218.546875 C 190.070312 219.496094 190.882812 220.308594 191.832031 220.171875 C 205.921875 218.683594 236.679688 214.617188 246.433594 202.421875 C 246.976562 201.882812 247.382812 201.203125 247.789062 200.527344 C 261.609375 190.636719 279.902344 178.171875 292.773438 181.964844 C 297.378906 183.320312 300.765625 186.570312 302.800781 191.855469 C 303.339844 193.074219 302.933594 194.699219 301.714844 195.511719 C 291.28125 202.695312 282.070312 209.46875 273.9375 215.566406 C 234.105469 245.238281 213.917969 260.277344 147.390625 242.664062 L 134.25 250.386719 Z M 106.066406 202.152344 " fill-opacity="1" fill-rule="evenodd"/><path fill="#ffffff" d="M 236.273438 190.230469 C 244.945312 184.675781 257.003906 177.085938 266.757812 179.390625 C 268.789062 179.933594 270.550781 180.746094 272.042969 181.964844 C 262.289062 186.300781 252.667969 193.210938 245.894531 197.953125 L 245.351562 198.359375 L 244.945312 199.035156 C 244.671875 199.441406 244.402344 199.984375 243.996094 200.390625 C 243.046875 197.546875 241.421875 194.972656 239.253906 192.804688 C 238.304688 191.855469 237.355469 191.042969 236.273438 190.230469 Z M 236.273438 190.230469 " fill-opacity="1" fill-rule="evenodd"/><path fill="#ffffff" d="M 109.722656 275.453125 C 108.640625 275.453125 107.554688 274.910156 107.015625 273.960938 L 72.464844 214.753906 C 72.058594 214.074219 71.921875 213.261719 72.058594 212.449219 C 72.328125 211.636719 72.871094 210.960938 73.546875 210.554688 L 96.039062 197.410156 C 97.53125 196.597656 99.425781 197.003906 100.238281 198.496094 L 134.789062 257.566406 C 135.332031 258.382812 135.332031 259.195312 135.195312 260.007812 C 134.925781 260.683594 134.519531 261.363281 133.707031 261.769531 L 111.214844 275.046875 C 110.671875 275.316406 110.265625 275.453125 109.722656 275.453125 Z M 109.722656 275.453125 " fill-opacity="1" fill-rule="evenodd"/><path fill="#ffffff" d="M 209.175781 180.066406 C 208.363281 180.066406 207.683594 179.796875 207.007812 179.253906 C 184.921875 157.167969 162.160156 134.269531 162.160156 110.96875 C 162.160156 97.148438 173.40625 85.902344 187.226562 85.902344 C 198.066406 85.902344 204.296875 91.050781 209.175781 99.042969 C 214.1875 91.050781 220.285156 85.902344 231.261719 85.902344 C 245.078125 85.902344 256.324219 97.148438 256.324219 110.96875 C 256.324219 134.269531 233.425781 157.167969 211.34375 179.253906 C 210.800781 179.796875 209.988281 180.066406 209.175781 180.066406 Z M 209.175781 180.066406 " fill-opacity="1" fill-rule="evenodd"/></svg>